<svg width="23" height="23" viewBox="0 0 23 23" fill="none" xmlns="http://www.w3.org/2000/svg">
<path d="M21.4717 7.12487L20.2717 15.7049C20.2418 16.1582 20.114 16.5997 19.897 16.9988C19.68 17.398 19.379 17.7453 19.0147 18.0169C18.9689 18.0487 18.9153 18.0675 18.8597 18.0715C18.804 18.0755 18.7484 18.0644 18.6985 18.0395C18.6485 18.0145 18.6063 17.9766 18.5761 17.9297C18.5459 17.8828 18.5288 17.8286 18.5267 17.7729V9.18187C18.5785 8.62172 18.5063 8.05704 18.3151 7.52798C18.1239 6.99893 17.8185 6.5185 17.4205 6.12087C17.0226 5.72324 16.542 5.41817 16.0128 5.22735C15.4836 5.03654 14.9189 4.96468 14.3587 5.01687H4.94675C4.64675 5.01687 4.63975 4.74687 4.66075 4.62687C4.74517 3.8134 5.14423 3.06516 5.77275 2.54187C6.12761 2.30402 6.5265 2.13963 6.94591 2.05839C7.36532 1.97715 7.79674 1.98072 8.21475 2.06887L18.7757 3.54887C19.2032 3.57996 19.6201 3.69632 20.0019 3.89108C20.3837 4.08584 20.7226 4.35506 20.9987 4.68287C21.2371 5.03751 21.4017 5.4364 21.483 5.85589C21.5642 6.27537 21.5604 6.7069 21.4717 7.12487ZM17.0237 9.18187V17.8499C17.0753 18.2119 17.0419 18.581 16.9262 18.928C16.8105 19.2749 16.6158 19.5902 16.3573 19.8489C16.0988 20.1076 15.7836 20.3026 15.4368 20.4185C15.0899 20.5345 14.7209 20.5681 14.3587 20.5169H3.69075C3.32845 20.5687 2.95907 20.5354 2.61185 20.4197C2.26464 20.304 1.94914 20.1091 1.69035 19.8503C1.43156 19.5915 1.23659 19.276 1.12089 18.9288C1.00518 18.5816 0.971926 18.2122 1.02375 17.8499V9.18187C0.972271 8.81973 1.00579 8.45057 1.12164 8.10362C1.2375 7.75667 1.43252 7.44144 1.69127 7.18289C1.95001 6.92434 2.26538 6.72955 2.61242 6.61396C2.95946 6.49836 3.32864 6.46512 3.69075 6.51687H14.3587C14.7207 6.46568 15.0895 6.49933 15.4362 6.61515C15.7829 6.73098 16.0979 6.92582 16.3563 7.18427C16.6148 7.44273 16.8096 7.75774 16.9255 8.10442C17.0413 8.4511 17.0749 8.81996 17.0237 9.18187ZM12.2737 13.5169C12.2737 13.318 12.1947 13.1272 12.0541 12.9865C11.9134 12.8459 11.7227 12.7669 11.5237 12.7669H9.77375V11.0169C9.77375 10.818 9.69473 10.6272 9.55408 10.4865C9.41343 10.3459 9.22266 10.2669 9.02375 10.2669C8.82484 10.2669 8.63407 10.3459 8.49342 10.4865C8.35277 10.6272 8.27375 10.818 8.27375 11.0169V12.7669H6.52375C6.32484 12.7669 6.13407 12.8459 5.99342 12.9865C5.85277 13.1272 5.77375 13.318 5.77375 13.5169C5.77375 13.7158 5.85277 13.9066 5.99342 14.0472C6.13407 14.1879 6.32484 14.2669 6.52375 14.2669H8.27375V16.0169C8.27375 16.2158 8.35277 16.4066 8.49342 16.5472C8.63407 16.6879 8.82484 16.7669 9.02375 16.7669C9.22266 16.7669 9.41343 16.6879 9.55408 16.5472C9.69473 16.4066 9.77375 16.2158 9.77375 16.0169V14.2669H11.5237C11.7227 14.2669 11.9134 14.1879 12.0541 14.0472C12.1947 13.9066 12.2737 13.7158 12.2737 13.5169Z" fill="#1877F2"/>
</svg>
