<svg width="24" height="25" viewBox="0 0 24 25" fill="none" xmlns="http://www.w3.org/2000/svg">
<path d="M15.6 12.9V17C15.6 17.4 15.6 17.7 15.5 18C15.1 19.5 13.9 20.4 12.2 20.4H9.5L6.5 22.4C6.1 22.7 5.5 22.4 5.5 21.8V20.4C4.5 20.4 3.6 20.1 3 19.5C2.3 18.8 2 18 2 17V12.9C2 11 3.2 9.7 5 9.5H5.4H12.2C14.2 9.5 15.6 10.9 15.6 12.9Z" fill="white"/>
<path d="M17.8 16.1C19.1 16.1 20.1 15.7 20.9 14.9C21.7 14.2 22.1 13.1 22.1 11.8V6.8C22 4.4 20.1 2.5 17.8 2.5H9.3C6.9 2.5 5 4.4 5 6.8V7.5C5 7.8 5.2 8 5.5 8H12.2C14.9 8 17.1 10.2 17.1 12.9V15.6C17.1 15.9 17.3 16.1 17.6 16.1H17.8Z" fill="white"/>
</svg>
