<svg width="25" height="25" viewBox="0 0 25 25" fill="none" xmlns="http://www.w3.org/2000/svg">
<g clip-path="url(#clip0_672_549)">
<path d="M24.13 17.362L22.1 9.389C21.744 9.462 21.377 9.5 21 9.5C20.267 9.5 19.569 9.353 18.928 9.092L21.068 17.5H3.919L6.21 8.545C6.87 5.574 9.457 3.5 12.5 3.5C13.576 3.5 14.605 3.77 15.513 4.248C15.509 4.165 15.5 4.084 15.5 4C15.5 3.007 15.769 2.077 16.231 1.271C15.077 0.773 13.812 0.5 12.5 0.5C8.04 0.5 4.25 3.541 3.293 7.848L0.820995 17.511C0.667995 18.213 0.855995 18.981 1.324 19.564C1.802 20.16 2.512 20.501 3.275 20.501H7.417C7.98 22.794 10.034 24.501 12.501 24.501C14.968 24.501 17.022 22.794 17.585 20.501H21.713C22.502 20.501 23.228 20.141 23.703 19.515C24.11 18.98 24.265 18.322 24.175 17.669C24.171 17.568 24.156 17.465 24.13 17.363V17.362ZM17.5 4C17.5 2.07 19.07 0.5 21 0.5C22.93 0.5 24.5 2.07 24.5 4C24.5 5.93 22.93 7.5 21 7.5C19.07 7.5 17.5 5.93 17.5 4Z" fill="white"/>
</g>
<defs>
<clipPath id="clip0_672_549">
<rect width="24" height="24" fill="white" transform="translate(0.5 0.5)"/>
</clipPath>
</defs>
</svg>
