<svg width="14" height="15" viewBox="0 0 14 15" fill="none" xmlns="http://www.w3.org/2000/svg">
<path d="M13.4851 11.2713L9.57355 7.35922L13.2032 3.72954C13.8899 3.04373 13.8899 1.93134 13.2032 1.24494C12.5171 0.558839 11.4047 0.559137 10.7192 1.24494L7.08896 4.87463L3.28121 1.06658C2.59481 0.380476 1.48242 0.380476 0.796613 1.06658C0.110808 1.75298 0.110808 2.86477 0.796613 3.55117L4.60466 7.35922L0.5148 11.4488C-0.1716 12.1355 -0.1716 13.2473 0.5148 13.9337C1.2009 14.6195 2.31299 14.6195 2.9988 13.9337L7.08896 9.84382L11.001 13.7559C11.6872 14.442 12.7992 14.442 13.4851 13.7559C14.1717 13.0692 14.1714 11.9568 13.4851 11.2713Z" fill="black"/>
</svg>
