<svg width="25" height="25" viewBox="0 0 25 25" fill="none" xmlns="http://www.w3.org/2000/svg">
<g clip-path="url(#clip0_672_524)">
<path d="M21 12.5H17.5C16.672 12.5 16 13.172 16 14C16 15.379 14.879 16.5 13.5 16.5H11C9.621 16.5 8.5 15.379 8.5 14C8.5 13.172 7.828 12.5 7 12.5H4C2.07 12.5 0.5 14.07 0.5 16V19.001C0.5 22.033 2.968 24.501 6 24.501H19C22.032 24.501 24.5 22.033 24.5 19.001V16C24.5 14.07 22.93 12.5 21 12.5ZM21.5 19.001C21.5 20.38 20.379 21.501 19 21.501H6C4.621 21.501 3.5 20.38 3.5 19.001V16C3.5 15.725 3.725 15.5 4 15.5H5.708C6.362 17.806 8.487 19.5 11 19.5H13.5C16.013 19.5 18.138 17.806 18.792 15.5H21C21.275 15.5 21.5 15.725 21.5 16V19.001Z" fill="white"/>
<path d="M11.856 12.231C12.21 12.59 12.79 12.59 13.144 12.231L16.443 8.889C16.952 8.374 16.587 7.501 15.863 7.501H14V2C14 1.172 13.328 0.5 12.5 0.5C11.672 0.5 11 1.172 11 2V7.5H9.13697C8.41297 7.5 8.04798 8.373 8.55697 8.888L11.856 12.23V12.231Z" fill="white"/>
</g>
<defs>
<clipPath id="clip0_672_524">
<rect width="24" height="24" fill="white" transform="translate(0.5 0.5)"/>
</clipPath>
</defs>
</svg>
