<svg width="20" height="20" viewBox="0 0 20 20" fill="none" xmlns="http://www.w3.org/2000/svg">
<g clip-path="url(#clip0_611_1549)">
<path d="M15.8333 10.0385C15.3725 10.0385 15 10.4119 15 10.8718V17.5385C15 17.9977 14.6266 18.3718 14.1667 18.3718H2.5C2.03995 18.3718 1.66672 17.9977 1.66672 17.5385V5.87183C1.66672 5.41269 2.03995 5.03854 2.5 5.03854H9.16672C9.62753 5.03854 10 4.66516 10 4.20526C10 3.74521 9.62753 3.37183 9.16672 3.37183H2.5C1.12167 3.37183 0 4.4935 0 5.87183V17.5385C0 18.9169 1.12167 20.0385 2.5 20.0385H14.1667C15.545 20.0385 16.6667 18.9169 16.6667 17.5385V10.8718C16.6667 10.411 16.2941 10.0385 15.8333 10.0385Z" fill="black"/>
<path d="M7.81344 9.27936C7.75515 9.33765 7.71594 9.4118 7.6993 9.49176L7.11016 12.4385C7.0827 12.5751 7.12603 12.7159 7.2243 12.8151C7.30349 12.8943 7.41015 12.9367 7.5194 12.9367C7.54595 12.9367 7.57357 12.9343 7.60104 12.9285L10.5469 12.3394C10.6285 12.3226 10.7027 12.2835 10.7602 12.2251L17.3535 5.63174L14.4077 2.68604L7.81344 9.27936Z" fill="black"/>
<path d="M19.3901 0.64846C18.5778 -0.16407 17.256 -0.16407 16.4443 0.64846L15.291 1.80172L18.2369 4.74758L19.3901 3.59417C19.7835 3.20171 20.0002 2.67834 20.0002 2.1217C20.0002 1.56506 19.7835 1.04168 19.3901 0.64846Z" fill="black"/>
</g>
<defs>
<clipPath id="clip0_611_1549">
<rect width="20" height="20" fill="white"/>
</clipPath>
</defs>
</svg>
