<svg width="25" height="25" viewBox="0 0 25 25" fill="none" xmlns="http://www.w3.org/2000/svg">
<g opacity="0.5" clip-path="url(#clip0_238_176)">
<path d="M2.3512 21.3659H6.16941V12.0931L3.66919 7.72729L0.714844 8.00222V19.7295C0.714844 20.6336 1.44712 21.3659 2.3512 21.3659Z" fill="#05C78B"/>
<path d="M19.2603 21.3659H23.0785C23.9826 21.3659 24.7148 20.6336 24.7148 19.7295V8.00222L21.7648 7.72729L19.2603 12.0931V21.3659H19.2603Z" fill="#00A94B"/>
<path d="M19.2603 5.00221L17.0175 9.28204L19.2603 12.0931L24.7148 8.00221V5.82041C24.7148 3.79813 22.4062 2.64313 20.7876 3.85677L19.2603 5.00221Z" fill="#FFBC00"/>
<path fill-rule="evenodd" clip-rule="evenodd" d="M6.1694 12.0931L4.03223 7.57859L6.1694 5.0022L12.7148 9.91128L19.2603 5.0022V12.0931L12.7148 17.0022L6.1694 12.0931Z" fill="#FF4131"/>
<path d="M0.714844 5.82041V8.00221L6.16941 12.0931V5.00221L4.64212 3.85677C3.02348 2.64313 0.714844 3.79813 0.714844 5.82041Z" fill="#E51C19"/>
</g>
<defs>
<clipPath id="clip0_238_176">
<rect width="24" height="24" fill="white" transform="translate(0.714844 0.363647)"/>
</clipPath>
</defs>
</svg>
