<svg width="25" height="25" viewBox="0 0 25 25" fill="none" xmlns="http://www.w3.org/2000/svg">
<g clip-path="url(#clip0_1149_1742)">
<path d="M18.2002 1.25C18.5503 1.25 18.8539 1.49228 18.9315 1.8337L19.3465 3.6586C19.5384 4.50268 20.1975 5.16178 21.0416 5.3537L22.8665 5.76867C23.2079 5.8463 23.4502 6.14986 23.4502 6.5C23.4502 6.85014 23.2079 7.1537 22.8665 7.23132L21.0416 7.6463C20.1975 7.83823 19.5384 8.49733 19.3465 9.34141L18.9315 11.1663C18.8539 11.5077 18.5503 11.75 18.2002 11.75C17.8501 11.75 17.5465 11.5077 17.4689 11.1663L17.0539 9.34141C16.862 8.49733 16.2029 7.83823 15.3588 7.6463L13.5339 7.23132C13.1925 7.1537 12.9502 6.85014 12.9502 6.5C12.9502 6.14986 13.1925 5.8463 13.5339 5.76867L15.3588 5.3537C16.2029 5.16178 16.862 4.50268 17.0539 3.6586L17.4689 1.8337C17.5465 1.49228 17.8501 1.25 18.2002 1.25Z" fill="url(#paint0_linear_1149_1742)"/>
<path fill-rule="evenodd" clip-rule="evenodd" d="M18.2002 12.875C18.6914 12.875 19.1458 12.6843 19.4845 12.3662C19.6258 13.0133 19.7002 13.6854 19.7002 14.375C19.7002 19.5527 15.5029 23.75 10.3252 23.75C5.14753 23.75 0.950195 19.5527 0.950195 14.375C0.950195 9.19734 5.14753 5 10.3252 5C11.0147 5 11.6869 5.07444 12.334 5.21574C12.0159 5.55436 11.8252 6.00882 11.8252 6.5C11.8252 7.37536 12.4309 8.13425 13.2845 8.32831L15.1094 8.74329C15.5314 8.83925 15.8609 9.1688 15.9569 9.59083L16.3719 11.4157C16.5659 12.2693 17.3248 12.875 18.2002 12.875ZM5.8252 13.625C5.41097 13.625 5.0752 13.9608 5.0752 14.375C5.0752 14.7892 5.41097 15.125 5.8252 15.125H9.5752V18.875C9.5752 19.2892 9.91097 19.625 10.3252 19.625C10.7394 19.625 11.0752 19.2892 11.0752 18.875V15.125H14.8252C15.2394 15.125 15.5752 14.7892 15.5752 14.375C15.5752 13.9608 15.2394 13.625 14.8252 13.625H11.0752V9.875C11.0752 9.46077 10.7394 9.125 10.3252 9.125C9.91097 9.125 9.5752 9.46077 9.5752 9.875V13.625H5.8252Z" fill="url(#paint1_linear_1149_1742)"/>
</g>
<defs>
<linearGradient id="paint0_linear_1149_1742" x1="29.6917" y1="28.2961" x2="9.73457" y2="4.94862" gradientUnits="userSpaceOnUse">
<stop offset="0.00265844" stop-color="#FF37DF"/>
<stop offset="1" stop-color="#6E00FF"/>
</linearGradient>
<linearGradient id="paint1_linear_1149_1742" x1="29.6917" y1="28.2961" x2="9.73457" y2="4.94862" gradientUnits="userSpaceOnUse">
<stop offset="0.00265844" stop-color="#FF37DF"/>
<stop offset="1" stop-color="#6E00FF"/>
</linearGradient>
<clipPath id="clip0_1149_1742">
<rect width="24" height="24" fill="white" transform="translate(0.200195 0.5)"/>
</clipPath>
</defs>
</svg>
