<svg width="25" height="25" viewBox="0 0 25 25" fill="none" xmlns="http://www.w3.org/2000/svg">
<g clip-path="url(#clip0_672_529)">
<path d="M6 21.5C5.33696 21.5 4.70107 21.2366 4.23223 20.7678C3.76339 20.2989 3.5 19.663 3.5 19V2C3.5 1.60218 3.34196 1.22064 3.06066 0.93934C2.77936 0.658035 2.39782 0.5 2 0.5C1.60218 0.5 1.22064 0.658035 0.93934 0.93934C0.658035 1.22064 0.5 1.60218 0.5 2L0.5 19C0.5 20.4587 1.07946 21.8576 2.11091 22.8891C3.14236 23.9205 4.54131 24.5 6 24.5H23C23.3978 24.5 23.7794 24.342 24.0607 24.0607C24.342 23.7794 24.5 23.3978 24.5 23C24.5 22.6022 24.342 22.2206 24.0607 21.9393C23.7794 21.658 23.3978 21.5 23 21.5H6Z" fill="white"/>
<path d="M20 18.5C20.3978 18.5 20.7794 18.342 21.0607 18.0607C21.342 17.7794 21.5 17.3978 21.5 17V11C21.5 10.6022 21.342 10.2206 21.0607 9.93934C20.7794 9.65804 20.3978 9.5 20 9.5C19.6022 9.5 19.2206 9.65804 18.9393 9.93934C18.658 10.2206 18.5 10.6022 18.5 11V17C18.5 17.3978 18.658 17.7794 18.9393 18.0607C19.2206 18.342 19.6022 18.5 20 18.5Z" fill="white"/>
<path d="M8 18.5C8.39782 18.5 8.77936 18.342 9.06066 18.0607C9.34196 17.7794 9.5 17.3978 9.5 17V11C9.5 10.6022 9.34196 10.2206 9.06066 9.93934C8.77936 9.65804 8.39782 9.5 8 9.5C7.60218 9.5 7.22064 9.65804 6.93934 9.93934C6.65804 10.2206 6.5 10.6022 6.5 11V17C6.5 17.3978 6.65804 17.7794 6.93934 18.0607C7.22064 18.342 7.60218 18.5 8 18.5Z" fill="white"/>
<path d="M14 18.5C14.3978 18.5 14.7794 18.342 15.0607 18.0607C15.342 17.7794 15.5 17.3978 15.5 17V6C15.5 5.60218 15.342 5.22064 15.0607 4.93934C14.7794 4.65804 14.3978 4.5 14 4.5C13.6022 4.5 13.2206 4.65804 12.9393 4.93934C12.658 5.22064 12.5 5.60218 12.5 6V17C12.5 17.3978 12.658 17.7794 12.9393 18.0607C13.2206 18.342 13.6022 18.5 14 18.5Z" fill="white"/>
</g>
<defs>
<clipPath id="clip0_672_529">
<rect width="24" height="24" fill="white" transform="translate(0.5 0.5)"/>
</clipPath>
</defs>
</svg>
