<svg width="24" height="25" viewBox="0 0 24 25" fill="none" xmlns="http://www.w3.org/2000/svg">
<g clip-path="url(#clip0_529_591)">
<path d="M12 0.5C5.3833 0.5 0 5.8833 0 12.5C0 19.1168 5.3833 24.5 12 24.5C18.6168 24.5 24 19.1168 24 12.5C24 5.8833 18.6167 0.5 12 0.5ZM12.7806 19.6199C12.2105 19.715 11.0761 19.9523 10.5 20C10.0124 20.0404 9.55225 19.7613 9.27175 19.3606C8.99052 18.96 8.92313 18.4473 9.09009 17.9873L11.3584 11.75H8.99999C8.99798 10.4504 9.97284 9.49473 11.2197 9.12798C11.8147 8.95291 12.9233 8.71334 13.5 8.75006C13.8455 8.77203 14.4477 8.9888 14.7282 9.38948C15.0095 9.79011 15.0769 10.3028 14.9099 10.7628L12.6416 17.0001H14.9993C14.9997 18.2982 14.0612 19.4065 12.7806 19.6199ZM13.5 8.00003C12.6715 8.00003 12 7.32837 12 6.50001C12 5.67156 12.6715 5 13.5 5C14.3284 5 15 5.67156 15 6.50001C15 7.32842 14.3285 8.00003 13.5 8.00003Z" fill="white"/>
</g>
<defs>
<clipPath id="clip0_529_591">
<rect width="24" height="24" fill="white" transform="translate(0 0.5)"/>
</clipPath>
</defs>
</svg>
