<svg width="1130" height="501" viewBox="0 0 1130 501" fill="none" xmlns="http://www.w3.org/2000/svg">
<path d="M1083.47 419.721L1005.84 352.572C983.647 331.462 961.972 311.136 940.761 290.333C937.974 287.598 936.361 282.426 936.293 278.347C935.882 254.815 936.099 231.276 936.099 207.738V180.724H877.756V224.155C826.061 174.821 775.809 126.877 725.214 78.5961C692.183 107.523 660.407 135.351 626.779 164.793C626.779 158.897 626.786 155.714 626.779 152.538C626.704 127.691 626.405 102.845 626.704 77.9983C626.779 71.5345 624.582 68.0821 618.941 65.0258C591.409 50.1031 564.154 34.6647 536.727 19.5624C532.274 17.1111 527.411 15.4076 521.336 12.7473V252.192H510.473V0.5C506.58 2.25613 503.681 3.35462 500.992 4.81901C465.152 24.3227 429.462 44.0875 393.442 63.2326C386.92 66.7 385.179 70.5631 385.231 77.6174C385.62 132.205 385.313 186.807 385.851 241.395C385.948 250.833 382.818 252.708 374.151 252.596C331.991 252.058 289.793 253.112 247.677 251.573C227.885 250.855 211.396 253.762 199.218 270.411C198.277 271.696 196.775 272.563 195.549 273.647C133.59 328.376 71.6305 383.098 9.70764 437.857C7.21241 440.069 5.03821 442.64 0.615234 447.213H108.964V500.5H129.137C129.137 482.655 129.062 465.416 129.16 448.177C129.234 433.478 125.446 417.031 130.833 404.581C136.19 392.185 150.7 383.651 161.451 373.705C172.479 363.505 183.827 353.633 195.034 343.62C206.218 333.621 217.411 323.616 229.866 312.481C272.833 350.98 315.972 389.636 359.202 428.374C358.013 430.527 357.192 431.558 356.84 432.731C355.697 436.587 354.726 440.487 353.687 444.366C357.057 444.986 360.427 446.099 363.811 446.129C384.395 446.331 404.993 446.757 425.547 445.987C430.68 445.793 436.537 442.468 440.564 438.896C497.817 388.224 554.875 337.328 611.851 286.35C644.733 256.938 677.368 227.257 710.159 197.755C714.515 193.832 719.154 190.215 724.197 186.008C737.31 198.068 750.25 209.92 763.145 221.824C823.432 277.442 883.628 333.159 944.086 388.59C950.608 394.576 953.507 400.591 953.298 409.64C952.671 436.43 953.089 463.241 953.104 490.046V500.5H972.253C972.253 466.163 972.103 433.246 972.38 400.337C972.44 393.32 970.654 388.261 965.245 383.314C902.531 325.976 840.085 268.348 777.521 210.854C759.813 194.571 741.957 178.46 724.033 162.147C721.299 164.568 719.356 166.287 717.413 168.013C622.281 252.835 527.015 337.515 432.196 422.687C422.566 431.341 413.174 429.024 402.565 427.649C403.155 425.901 404.425 425.385 405.396 424.526C473.602 364.027 541.823 303.544 609.953 242.964C646.092 210.824 682.141 178.58 718.049 146.179C722.629 142.046 725.707 141.785 730.331 146.022C773.426 185.567 816.67 224.963 859.914 264.35C917.167 316.509 1083.46 457.667 1083.46 457.667L1083.47 457.674C1090.05 457.912 1126.89 459.218 1129.38 459.28C1113.21 445.238 1101.69 435.431 1083.47 419.721ZM373.442 416.463C326.014 373.854 278.72 331.38 230.583 288.143C217.03 300.167 203.252 312.534 189.304 324.722C164.454 346.43 139.395 367.914 114.732 389.838C112.087 392.192 110.406 396.788 110.152 400.471C109.517 409.82 109.943 419.25 109.943 429.308H47.2738C108.748 374.975 168.481 322.173 229.335 268.393C280.379 314.507 331.677 360.837 383.528 407.675C379.561 411.135 377.14 413.242 373.442 416.463ZM391.223 384.398C347.628 346.953 304.025 309.5 260.423 272.047C261.297 271.023 262.163 270.007 263.038 268.984C311.452 300.742 351.969 341.819 394.249 380.811C393.241 382.007 392.232 383.203 391.223 384.398ZM413.174 364.469C377.289 333.48 341.405 302.491 303.973 270.172C320.066 272.398 398.896 339.271 414.84 362.518C414.287 363.168 413.727 363.818 413.174 364.469ZM351.035 270.299C365.164 271.756 422.947 319.035 436.686 340.818C408.131 317.309 379.583 293.808 351.035 270.299ZM399.868 269.432C409.132 268.498 447.677 298.538 457.912 315.642C438.89 300.496 419.861 285.349 399.868 269.432ZM489.232 255.264C482.941 252.671 478.04 250.459 472.989 248.688C471.652 248.217 469.859 249.189 468.268 249.323C447.744 251.124 427.221 252.887 406.136 254.711C405.726 249.51 405.359 246.992 405.359 244.474C405.225 192.838 405.24 141.202 404.904 89.5738C404.859 82.8707 406.742 79.0598 412.995 75.9065C435.417 64.5854 457.472 52.5398 479.692 40.8152C482.501 39.3358 485.445 38.1101 489.233 36.3393V255.264H489.232ZM567.046 216.339V191.187C576.512 191.904 584.2 192.487 594.772 193.286C584.551 201.782 576.378 208.582 567.046 216.339ZM604.821 177.474C600.614 176.891 597.723 176.488 594.832 176.092C576.153 173.536 575.593 172.721 579.388 152.777C587.622 154.13 595.87 155.489 604.821 156.962L604.821 177.474ZM605.717 139.767C596.266 138.235 587.741 136.845 578.641 135.366V114.801C587.95 116.251 596.684 117.603 605.717 119.008V139.767ZM605.247 101.821C597.372 100.319 590.02 99.2056 582.87 97.3525C581.07 96.8819 578.843 94.169 578.619 92.2711C578.029 87.257 578.417 82.1308 578.417 76.9524C609.192 80.5242 606.726 80.1656 605.247 101.821Z" fill="#1C2C44" fill-opacity="0.08"/>
<path d="M668.942 337.543C685.666 337.543 701.274 337.543 717.691 337.543C717.691 357.312 717.691 376.759 717.691 397.253C701.893 397.253 685.776 397.253 668.942 397.253C668.942 377.87 668.942 358.157 668.942 337.543Z" fill="#1C2C44" fill-opacity="0.08"/>
<path d="M735.087 337.956C749.589 337.956 763.559 337.761 777.51 338.189C779.375 338.246 782.679 341.421 782.718 343.209C783.109 361.11 782.955 379.023 782.955 397.589C766.688 397.589 751.212 397.589 735.087 397.589C735.087 377.668 735.087 358.31 735.087 337.956Z" fill="#1C2C44" fill-opacity="0.08"/>
<path d="M734.678 272.685C763.199 273.891 782.877 294.719 781.55 322.961C773.899 322.961 766.174 322.961 758.45 322.961C750.725 322.961 742.999 322.961 734.678 322.961C734.678 305.69 734.678 289.532 734.678 272.685Z" fill="#1C2C44" fill-opacity="0.08"/>
<path d="M668.892 322.803C670.368 298.07 686.522 278.666 708.299 273.573C714.827 272.046 718.216 273.002 718.036 280.685C717.716 294.321 717.946 307.969 717.946 322.803C708.954 322.803 700.898 322.803 692.843 322.803C685.054 322.803 677.265 322.803 668.892 322.803Z" fill="#1C2C44" fill-opacity="0.08"/>
<path d="M239.249 425.653C239.249 416.121 239.249 407.729 239.249 398.714C247.274 398.714 254.926 398.714 263.366 398.714C263.366 407.595 263.366 416.484 263.366 425.653C255.552 425.653 247.83 425.653 239.249 425.653Z" fill="#1C2C44" fill-opacity="0.08"/>
<path d="M240.076 388.767C239.853 386.722 239.49 384.839 239.468 382.952C239.394 376.489 239.44 370.024 239.44 362.802C247.766 362.802 255.332 362.802 263.452 362.802C263.452 371.38 263.452 379.71 263.452 388.767C255.736 388.767 248.157 388.767 240.076 388.767Z" fill="#1C2C44" fill-opacity="0.08"/>
<path d="M230.137 362.743C230.137 371.673 230.137 379.921 230.137 388.7C222.624 388.7 215.655 388.7 208.07 388.7C207.775 386.606 207.259 384.769 207.297 382.944C207.757 360.994 201.207 361.404 230.137 362.743Z" fill="#1C2C44" fill-opacity="0.08"/>
<path d="M230.339 399.231C230.339 408.029 230.339 416.316 230.339 424.546C202.826 427.517 206.916 428.169 208.139 399.231C215.376 399.231 222.649 399.231 230.339 399.231Z" fill="#1C2C44" fill-opacity="0.08"/>
<path d="M475.004 67.6226C477.376 83.607 476.023 85.3277 457.209 90.2575C454.965 75.8401 456.087 74.4144 475.004 67.6226Z" fill="#1C2C44" fill-opacity="0.08"/>
<path d="M475.199 174.163C476.875 190.777 476.875 190.777 457.846 197.669C454.498 184.014 455.226 182.993 475.199 174.163Z" fill="#1C2C44" fill-opacity="0.08"/>
<path d="M475.169 102.917C477.344 119.695 476.446 120.899 457.952 125.982C455.235 112.792 456.721 110.8 475.169 102.917Z" fill="#1C2C44" fill-opacity="0.08"/>
<path d="M475.449 138.867C477.024 154.828 477.024 154.828 457.611 161.633C454.379 148.358 454.958 147.594 475.449 138.867Z" fill="#1C2C44" fill-opacity="0.08"/>
<path d="M475.393 211.562C476.858 228.441 475.594 229.883 457.897 232.268C455.948 219.646 457.568 217.669 475.393 211.562Z" fill="#1C2C44" fill-opacity="0.08"/>
<path d="M445.834 191.57C444.561 208.128 430.157 206.566 421.952 212.978C419.172 205.422 424.935 200.361 445.834 191.57Z" fill="#1C2C44" fill-opacity="0.08"/>
<path d="M422.027 175.266C423.793 162.465 436.145 161.98 444.868 154.267C446.507 173.561 429.463 168.888 422.027 175.266Z" fill="#1C2C44" fill-opacity="0.08"/>
<path d="M419.932 139.423C424.735 129.473 435.142 126.755 443.52 120.71C445.551 131.215 440.838 135.076 419.932 139.423Z" fill="#1C2C44" fill-opacity="0.08"/>
<path d="M419.079 103.224C427.877 97.5436 436.674 91.8636 445.913 85.8993C445.899 96.4899 436.768 102.871 419.079 103.224Z" fill="#1C2C44" fill-opacity="0.08"/>
<path d="M445.559 226.009C445.88 235.666 439.975 239.725 424.102 240.088C432.189 234.782 438.693 230.514 445.559 226.009Z" fill="#1C2C44" fill-opacity="0.08"/>
</svg>
