<svg width="25" height="25" viewBox="0 0 25 25" fill="none" xmlns="http://www.w3.org/2000/svg">
<g opacity="0.5">
<path d="M19.0678 10.246V7.42246C19.0678 3.89305 16.2443 1.06952 12.7149 1.06952C9.18544 1.06952 6.36191 3.89305 6.36191 7.42246V10.246C5.16191 10.246 4.24426 11.1636 4.24426 12.3636V21.5401C4.24426 22.6695 5.16191 23.6578 6.36191 23.6578H19.0678C20.2678 23.6578 21.1854 22.6695 21.1854 21.5401V12.3636C21.1854 11.1636 20.2678 10.246 19.0678 10.246ZM7.77367 7.42246C7.77367 4.66952 9.96191 2.48128 12.7149 2.48128C15.4678 2.48128 17.656 4.66952 17.656 7.42246V10.246H7.77367V7.42246ZM13.4207 17.8695V19.4225C13.4207 19.846 13.1384 20.1283 12.7149 20.1283C12.2913 20.1283 12.009 19.846 12.009 19.4225V17.8695C11.1619 17.5872 10.5972 16.8107 10.5972 15.893C10.5972 14.693 11.5149 13.7754 12.7149 13.7754C13.9149 13.7754 14.8325 14.693 14.8325 15.893C14.8325 16.8107 14.2678 17.5872 13.4207 17.8695Z" fill="black"/>
</g>
</svg>
