<svg width="24" height="25" viewBox="0 0 24 25" fill="none" xmlns="http://www.w3.org/2000/svg">
<g clip-path="url(#clip0_529_597)">
<path d="M16.8512 13.7239C16.6162 13.7046 16.3831 13.7792 16.203 13.9315C16.023 14.0838 15.9107 14.3013 15.8907 14.5363C15.812 15.4653 15.7145 16.2734 15.6292 16.6981V16.7033C15.3774 18.0017 14.1474 19.2852 12.886 19.5674C12.7768 19.5898 12.6671 19.6114 12.5579 19.632C12.6517 18.4259 12.7215 16.8838 12.7121 15.6945C12.7262 13.8777 12.5523 11.0802 12.3981 9.96688C12.121 7.91704 10.8606 5.6436 9.46603 4.67751L9.45759 4.67188C8.48799 4.01685 7.44885 3.47118 6.35916 3.04485C6.16478 2.96954 5.97275 2.89923 5.78306 2.83391C6.8175 2.67398 7.86291 2.59561 8.90963 2.59954C10.3346 2.59954 11.6354 2.72938 12.886 2.98907C14.1474 3.27032 15.3774 4.55469 15.6292 5.85313V5.85829C15.714 6.28016 15.8115 7.08829 15.8903 8.01454C15.9103 8.24994 16.023 8.46775 16.2036 8.62005C16.3842 8.77235 16.6179 8.84666 16.8533 8.82665C17.0887 8.80663 17.3065 8.69392 17.4588 8.51332C17.6111 8.33271 17.6854 8.099 17.6654 7.8636C17.5801 6.86095 17.4751 6.0036 17.3767 5.51048C16.9881 3.51313 15.2204 1.68079 13.2648 1.24766L13.2535 1.24532C11.8792 0.96032 10.4588 0.820633 8.90635 0.81782C7.35385 0.815008 5.93916 0.958445 4.56478 1.24579L4.55306 1.24813C3.68025 1.44173 2.84541 1.91423 2.15353 2.55501C1.96654 2.696 1.80311 2.86577 1.66931 3.05798C1.05806 3.77141 0.614157 4.62501 0.441657 5.51048C0.225564 6.59376 -0.0186552 9.40298 9.47996e-05 11.278C-0.0102177 12.2839 0.0549386 13.5589 0.151501 14.6919C0.203064 15.4184 0.261657 16.0513 0.317907 16.4572C0.594939 18.507 1.85541 20.7805 3.25041 21.7466L3.25838 21.7522C4.22821 22.4071 5.26749 22.9528 6.35728 23.3792C7.46072 23.8077 8.47322 24.0674 9.45338 24.1733H9.46181C10.779 24.2909 11.9762 23.1477 12.3385 21.4761C12.6451 21.4274 12.949 21.3719 13.2503 21.3097L13.2615 21.3074C15.2176 20.8742 16.9848 19.0419 17.3734 17.0445C17.4718 16.5505 17.5773 15.6913 17.6626 14.6863C17.6825 14.4511 17.6082 14.2176 17.456 14.0372C17.3039 13.8567 17.0863 13.7441 16.8512 13.7239Z" fill="white"/>
<path d="M24.0041 11.2766C24.0041 11.247 24.0041 11.2175 23.9994 11.188C23.9996 11.1861 23.9996 11.1842 23.9994 11.1824C23.9966 11.1547 23.9924 11.1271 23.9868 11.0999V11.0938C23.9516 10.9245 23.8677 10.7692 23.7454 10.647L20.5579 7.45673C20.3908 7.28965 20.1643 7.19575 19.928 7.19571C19.6918 7.19567 19.4652 7.28947 19.2981 7.4565C19.131 7.62352 19.0371 7.85008 19.0371 8.08633C19.037 8.32258 19.1308 8.54918 19.2979 8.71626L20.9699 10.3878H14.8213C14.5851 10.3878 14.3585 10.4817 14.1915 10.6487C14.0245 10.8157 13.9307 11.0422 13.9307 11.2785C13.9307 11.5147 14.0245 11.7412 14.1915 11.9082C14.3585 12.0752 14.5851 12.1691 14.8213 12.1691H20.9619L19.2913 13.8397C19.1248 14.0068 19.0315 14.2332 19.0317 14.4691C19.032 14.705 19.1258 14.9311 19.2926 15.0979C19.4594 15.2647 19.6855 15.3585 19.9214 15.3588C20.1573 15.359 20.3837 15.2657 20.5508 15.0992L23.7238 11.9263C23.8389 11.8185 23.923 11.6819 23.9675 11.5306C23.9756 11.5037 23.9822 11.4763 23.9872 11.4486C23.9875 11.4447 23.9875 11.4408 23.9872 11.4369C23.9914 11.413 23.9957 11.39 23.998 11.3647C24.0004 11.3394 23.998 11.3281 23.998 11.3103C23.998 11.3 23.998 11.2897 23.998 11.2794L24.0041 11.2766Z" fill="white"/>
</g>
<defs>
<clipPath id="clip0_529_597">
<rect width="24" height="24" fill="white" transform="translate(0 0.5)"/>
</clipPath>
</defs>
</svg>
