<svg width="18" height="18" viewBox="0 0 18 18" fill="none" xmlns="http://www.w3.org/2000/svg">
<g clip-path="url(#clip0_1149_1808)">
<path d="M0.622558 3.11794L6.79979 8.1438C6.82029 8.16103 6.843 8.17566 6.86719 8.18775C6.94921 8.22913 7.03639 8.25036 7.12573 8.25036C7.22093 8.25036 7.31617 8.22547 7.45532 8.14124L13.6282 3.11829C13.7197 3.04393 13.771 2.93115 13.7666 2.81359C13.7622 2.69603 13.7029 2.58725 13.6062 2.51989C13.3528 2.34338 13.0569 2.25 12.75 2.25H1.50002C1.19314 2.25 0.897234 2.34337 0.644566 2.51954C0.547886 2.58694 0.488542 2.69568 0.484148 2.81324C0.479753 2.9308 0.531011 3.04358 0.622558 3.11794Z" fill="#152C56"/>
<path d="M9.89796 8.70814L10.9585 7.64758C11.2031 7.40296 11.5408 7.28027 11.8924 7.32678C12.022 7.33922 12.1553 7.28979 12.2366 7.18506C12.4519 6.90856 12.7756 6.75 13.125 6.75H13.875C14.0823 6.75 14.25 6.58227 14.25 6.37499V4.36782C14.25 4.22315 14.1665 4.09131 14.0361 4.02909C13.9058 3.96756 13.7512 3.98514 13.6384 4.07707L7.88453 8.75904L7.81935 8.80264C7.38503 9.06814 6.85329 9.08171 6.36694 8.75943L0.611578 4.07665C0.4995 3.9851 0.34425 3.96753 0.213855 4.02866C0.0834961 4.09096 0 4.2228 0 4.36743V11.25C0 12.0773 0.673102 12.75 1.50001 12.75H8.62502C8.8323 12.75 9.00004 12.5823 9.00004 12.375V10.875C9.00004 10.5249 9.15898 10.2012 9.43509 9.98656C9.53982 9.90524 9.59404 9.77488 9.5772 9.64343C9.53321 9.29665 9.65039 8.95571 9.89796 8.70814Z" fill="#152C56"/>
<path d="M17.7159 10.5114L16.9974 10.3315L17.3782 9.6965C17.4669 9.54892 17.4434 9.35995 17.3218 9.23838L16.2613 8.17782C16.139 8.05477 15.95 8.03315 15.8028 8.12143L15.1685 8.50228L14.9891 7.78376C14.9473 7.61711 14.7972 7.49994 14.625 7.49994H13.125C12.9529 7.49994 12.8028 7.61711 12.761 7.78376L12.5816 8.50228L11.9473 8.12143C11.8001 8.03319 11.6111 8.05625 11.4888 8.17782L10.4282 9.23838C10.3067 9.35995 10.2832 9.54892 10.3718 9.6965L10.7527 10.3315L10.0342 10.5114C9.86718 10.5531 9.75 10.7029 9.75 10.875V12.375C9.75 12.5471 9.86718 12.6969 10.0342 12.7386L10.7527 12.9185L10.3718 13.5535C10.2832 13.7011 10.3067 13.89 10.4282 14.0116L11.4888 15.0722C11.6111 15.1945 11.8001 15.2161 11.9473 15.1286L12.5816 14.7477L12.761 15.4662C12.8028 15.6329 12.9529 15.7501 13.125 15.7501H14.6251C14.7972 15.7501 14.9474 15.6329 14.9891 15.4662L15.1685 14.7477L15.8028 15.1286C15.9501 15.2161 16.139 15.1945 16.2613 15.0722L17.3219 14.0116C17.4435 13.89 17.4669 13.7011 17.3783 13.5535L16.9974 12.9185L17.7159 12.7386C17.8829 12.6969 18.0001 12.5471 18.0001 12.375V10.875C18.0001 10.7029 17.8829 10.5531 17.7159 10.5114ZM13.8751 13.5C12.8409 13.5 12.0001 12.6588 12.0001 11.625C12.0001 10.5912 12.8409 9.75001 13.8751 9.75001C14.9092 9.75001 15.7501 10.5912 15.7501 11.625C15.7501 12.6588 14.9092 13.5 13.8751 13.5Z" fill="#152C56"/>
</g>
<defs>
<clipPath id="clip0_1149_1808">
<rect width="18" height="18" fill="white"/>
</clipPath>
</defs>
</svg>
