<svg width="25" height="25" viewBox="0 0 25 25" fill="none" xmlns="http://www.w3.org/2000/svg">
<g clip-path="url(#clip0_672_541)">
<path d="M14 19.5C17.033 19.5 19.5 17.033 19.5 14V6C19.5 2.967 17.033 0.5 14 0.5H6C2.967 0.5 0.5 2.967 0.5 6V14C0.5 17.033 2.967 19.5 6 19.5H14ZM3.5 14V6C3.5 4.622 4.622 3.5 6 3.5H14C15.378 3.5 16.5 4.622 16.5 6V14C16.5 15.378 15.378 16.5 14 16.5H6C4.622 16.5 3.5 15.378 3.5 14ZM24.5 8V19C24.5 22.033 22.033 24.5 19 24.5H7C6.171 24.5 5.5 23.829 5.5 23C5.5 22.171 6.171 21.5 7 21.5H19C20.378 21.5 21.5 20.378 21.5 19V8C21.5 7.171 22.171 6.5 23 6.5C23.829 6.5 24.5 7.171 24.5 8ZM7 11.5C6.171 11.5 5.5 10.829 5.5 10C5.5 9.171 6.171 8.5 7 8.5H8.5V7C8.5 6.171 9.171 5.5 10 5.5C10.829 5.5 11.5 6.171 11.5 7V8.5H13C13.829 8.5 14.5 9.171 14.5 10C14.5 10.829 13.829 11.5 13 11.5H11.5V13C11.5 13.829 10.829 14.5 10 14.5C9.171 14.5 8.5 13.829 8.5 13V11.5H7Z" fill="white"/>
</g>
<defs>
<clipPath id="clip0_672_541">
<rect width="24" height="24" fill="white" transform="translate(0.5 0.5)"/>
</clipPath>
</defs>
</svg>
