<svg width="24" height="25" viewBox="0 0 24 25" fill="none" xmlns="http://www.w3.org/2000/svg">
<path fill-rule="evenodd" clip-rule="evenodd" d="M16.1655 1.01562L10.8184 3.30139V22.2495H12.4463V18.2664L12.0695 18.3023C11.9154 18.3168 11.7787 18.2037 11.7642 18.0496C11.7496 17.8955 11.8627 17.7587 12.0169 17.7441L14.9143 17.4684C15.0684 17.4538 15.2052 17.567 15.2197 17.7211C15.2343 17.8752 15.1212 18.0119 14.967 18.0265L14.5376 18.0673V22.2494H21.5127V3.30139L16.1655 1.01562ZM12.916 15.7134L11.9052 15.8101V13.8572L12.916 13.7014V15.7134ZM12.9163 12.5411L11.9053 12.731V10.7735L12.9163 10.5243V12.5411ZM12.9163 9.36725L11.9053 9.65042V7.69283L12.9163 7.35041V9.36725ZM12.9163 6.19175L11.9053 6.56666V4.73783L12.9166 4.30433L12.9163 6.19175ZM15.0786 15.5074L13.9397 15.6165V13.5413L15.0786 13.3654V15.5074ZM15.0786 12.1322L13.9397 12.3465V10.2729L15.0786 9.99186V12.1321V12.1322ZM15.0786 8.75867L13.9397 9.07812V7.00287L15.0786 6.61667V8.75867ZM15.0786 5.38517L13.9397 5.80972L13.9393 3.86614L15.0785 3.37737V5.38517H15.0786ZM17.7836 18.9219C17.7836 19.0773 17.6577 19.2032 17.5023 19.2032C17.347 19.2032 17.2211 19.0773 17.2211 18.9219V3.4722C17.2211 3.31686 17.347 3.19095 17.5023 3.19095C17.6577 3.19095 17.7836 3.31686 17.7836 3.4722V18.922V18.9219ZM19.1203 18.9219C19.1203 19.0773 18.9944 19.2032 18.8391 19.2032C18.6837 19.2032 18.5578 19.0773 18.5578 18.9219V4.04366C18.5578 3.88831 18.6838 3.76241 18.8391 3.76241C18.9944 3.76241 19.1203 3.88836 19.1203 4.04366V18.922V18.9219ZM20.4571 18.9219C20.4571 19.0773 20.3312 19.2032 20.1759 19.2032C20.0205 19.2032 19.8946 19.0773 19.8946 18.9219V4.61511C19.8946 4.45977 20.0205 4.33386 20.1759 4.33386C20.3312 4.33386 20.4571 4.45977 20.4571 4.61511V18.922V18.9219ZM8.05433 6.53591L2.48623 8.91613V22.2495H4.22464V19.157L3.84791 19.1929C3.69378 19.2074 3.55705 19.0943 3.54252 18.9402C3.52798 18.7861 3.64109 18.6493 3.79522 18.6348L6.69266 18.359C6.84678 18.3445 6.98351 18.4576 6.99809 18.6117C7.01262 18.7659 6.89952 18.9026 6.74539 18.9172L6.31597 18.9581V22.2495H10.2559V7.47702L8.05433 6.53591ZM4.49853 16.28L3.67592 16.3926V14.8092L4.49853 14.6402V16.28ZM4.49853 13.699L3.67592 13.9013V12.3178L4.49853 12.0592V13.699ZM4.49881 11.117L3.67597 11.408V9.92905L4.49909 9.58236L4.49881 11.117ZM6.28733 16.033L5.33994 16.1635V14.4677L6.28733 14.2722V16.033ZM6.28733 13.2573L5.33994 13.4907V11.7938L6.28733 11.4944V13.2573ZM6.28733 10.4805L5.33966 10.8178V9.22878L6.28733 8.8272V10.4805ZM0.541016 22.812H23.4578V23.9844H0.541016V22.812Z" fill="white"/>
</svg>
