<svg width="25" height="25" viewBox="0 0 25 25" fill="none" xmlns="http://www.w3.org/2000/svg">
<g clip-path="url(#clip0_672_536)">
<path d="M24.263 7.09702L22.686 8.38202L23.338 10.369C23.427 10.638 23.337 10.934 23.112 11.107C22.887 11.28 22.578 11.292 22.341 11.138L20.505 9.94202L18.7 11.15C18.588 11.225 18.458 11.263 18.329 11.263C18.188 11.263 18.047 11.218 17.929 11.13C17.702 10.96 17.608 10.666 17.693 10.396L18.32 8.38502L16.735 7.09502C16.522 6.91402 16.444 6.61902 16.541 6.35702C16.637 6.09502 16.887 5.92002 17.167 5.92002H19.168L19.876 3.93302C19.973 3.67202 20.222 3.49902 20.501 3.49902C20.78 3.49902 21.029 3.67202 21.126 3.93302L21.834 5.92002H23.835C24.115 5.92002 24.365 6.09502 24.461 6.35802C24.557 6.62102 24.477 6.91602 24.263 7.09702ZM8.73598 4.09502L10.321 5.38502L9.69398 7.39602C9.60898 7.66602 9.70398 7.96002 9.92998 8.13002C10.048 8.21902 10.189 8.26302 10.33 8.26302C10.459 8.26302 10.588 8.22602 10.701 8.15002L12.506 6.94202L14.342 8.13802C14.579 8.29202 14.888 8.28002 15.113 8.10702C15.338 7.93402 15.428 7.63802 15.339 7.36902L14.687 5.38202L16.264 4.09702C16.478 3.91702 16.557 3.62102 16.461 3.35802C16.365 3.09502 16.115 2.92002 15.835 2.92002H13.834L13.126 0.933023C13.029 0.672023 12.78 0.499023 12.501 0.499023C12.222 0.499023 11.973 0.672023 11.876 0.933023L11.168 2.92002H9.16698C8.88698 2.92002 8.63798 3.09402 8.54098 3.35702C8.44398 3.61902 8.52197 3.91402 8.73497 4.09502H8.73598ZM6.34197 11.137C6.57897 11.291 6.88797 11.279 7.11297 11.106C7.33797 10.933 7.42798 10.637 7.33897 10.368L6.68697 8.38102L8.26397 7.09602C8.47797 6.91602 8.55697 6.62002 8.46097 6.35702C8.36497 6.09402 8.11497 5.91902 7.83497 5.91902H5.83397L5.12597 3.93202C5.02897 3.67102 4.77997 3.49802 4.50097 3.49802C4.22197 3.49802 3.97297 3.67102 3.87597 3.93202L3.16797 5.91902H1.16697C0.886975 5.91902 0.637975 6.09302 0.540975 6.35602C0.443975 6.61802 0.521975 6.91302 0.734975 7.09402L2.31997 8.38402L1.69297 10.395C1.60797 10.665 1.70297 10.959 1.92897 11.129C2.04697 11.218 2.18797 11.262 2.32897 11.262C2.45797 11.262 2.58697 11.225 2.69997 11.149L4.50497 9.94102L6.34197 11.137ZM20.442 18.088L19.803 21.284C19.429 23.154 17.787 24.5 15.881 24.5H7.49997C5.84297 24.5 4.49997 23.157 4.49997 21.5V17.5C4.49997 15.843 5.84297 14.5 7.49997 14.5H8.95598L11.149 10.351C11.329 9.99902 11.577 9.73702 11.831 9.63202C12.043 9.54402 12.258 9.50002 12.471 9.50002C13.153 9.50002 13.715 9.94602 13.903 10.636C13.925 10.716 13.953 10.901 13.896 11.235L13.316 14.5H17.499C19.392 14.5 20.813 16.232 20.442 18.088ZM7.50097 22.5H8.50098V16.5H7.50097C6.94997 16.5 6.50097 16.949 6.50097 17.5V21.5C6.50097 22.051 6.94997 22.5 7.50097 22.5ZM18.273 16.866C18.161 16.729 17.911 16.5 17.5 16.5H10.501V22.5H15.88C16.83 22.5 17.655 21.824 17.841 20.892L18.48 17.696C18.561 17.292 18.385 17.003 18.273 16.866Z" fill="white"/>
</g>
<defs>
<clipPath id="clip0_672_536">
<rect width="24" height="24" fill="white" transform="translate(0.5 0.5)"/>
</clipPath>
</defs>
</svg>
