<svg width="24" height="25" viewBox="0 0 24 25" fill="none" xmlns="http://www.w3.org/2000/svg">
<path d="M18 1.25C18.3501 1.25 18.6537 1.49228 18.7313 1.8337L19.1463 3.6586C19.3382 4.50268 19.9973 5.16178 20.8414 5.3537L22.6663 5.76867C23.0077 5.8463 23.25 6.14986 23.25 6.5C23.25 6.85014 23.0077 7.1537 22.6663 7.23132L20.8414 7.6463C19.9973 7.83823 19.3382 8.49733 19.1463 9.34141L18.7313 11.1663C18.6537 11.5077 18.3501 11.75 18 11.75C17.6499 11.75 17.3463 11.5077 17.2687 11.1663L16.8537 9.34141C16.6618 8.49733 16.0027 7.83823 15.1586 7.6463L13.3337 7.23132C12.9923 7.1537 12.75 6.85014 12.75 6.5C12.75 6.14986 12.9923 5.8463 13.3337 5.76867L15.1586 5.3537C16.0027 5.16178 16.6618 4.50268 16.8537 3.6586L17.2687 1.8337C17.3463 1.49228 17.6499 1.25 18 1.25Z" fill="url(#paint0_linear_610_1375)"/>
<path fill-rule="evenodd" clip-rule="evenodd" d="M18 12.875C18.4912 12.875 18.9456 12.6843 19.2843 12.3662C19.4256 13.0133 19.5 13.6854 19.5 14.375C19.5 19.5527 15.3027 23.75 10.125 23.75C4.94734 23.75 0.75 19.5527 0.75 14.375C0.75 9.19734 4.94734 5 10.125 5C10.8146 5 11.4867 5.07444 12.1338 5.21574C11.8157 5.55436 11.625 6.00882 11.625 6.5C11.625 7.37536 12.2307 8.13425 13.0843 8.32831L14.9092 8.74329C15.3312 8.83925 15.6607 9.1688 15.7567 9.59083L16.1717 11.4157C16.3658 12.2693 17.1246 12.875 18 12.875ZM5.625 13.625C5.21077 13.625 4.875 13.9608 4.875 14.375C4.875 14.7892 5.21077 15.125 5.625 15.125H9.375V18.875C9.375 19.2892 9.71078 19.625 10.125 19.625C10.5392 19.625 10.875 19.2892 10.875 18.875V15.125H14.625C15.0392 15.125 15.375 14.7892 15.375 14.375C15.375 13.9608 15.0392 13.625 14.625 13.625H10.875V9.875C10.875 9.46077 10.5392 9.125 10.125 9.125C9.71078 9.125 9.375 9.46077 9.375 9.875V13.625H5.625Z" fill="url(#paint1_linear_610_1375)"/>
<defs>
<linearGradient id="paint0_linear_610_1375" x1="29.4915" y1="28.2961" x2="9.53438" y2="4.94862" gradientUnits="userSpaceOnUse">
<stop offset="0.00265844" stop-color="#FF37DF"/>
<stop offset="1" stop-color="#6E00FF"/>
</linearGradient>
<linearGradient id="paint1_linear_610_1375" x1="29.4915" y1="28.2961" x2="9.53437" y2="4.94862" gradientUnits="userSpaceOnUse">
<stop offset="0.00265844" stop-color="#FF37DF"/>
<stop offset="1" stop-color="#6E00FF"/>
</linearGradient>
</defs>
</svg>
