<svg width="24" height="25" viewBox="0 0 24 25" fill="none" xmlns="http://www.w3.org/2000/svg">
<g clip-path="url(#clip0_529_584)">
<path d="M14.25 0.5H2.75C1.23 0.5 0 1.73 0 3.25V18.75C0 20.27 1.23 21.5 2.75 21.5H7.65C7.75 21.1 7.93 20.72 8.16 20.37L13.38 11.89C14.05 10.74 15.35 10 16.75 10C16.83 10 16.92 10 17 10.01V3.25C17 1.73 15.77 0.5 14.25 0.5ZM4 4.5H8C8.55 4.5 9 4.95 9 5.5C9 6.05 8.55 6.5 8 6.5H4C3.45 6.5 3 6.05 3 5.5C3 4.95 3.45 4.5 4 4.5ZM9 14.5H4C3.45 14.5 3 14.05 3 13.5C3 12.95 3.45 12.5 4 12.5H9C9.55 12.5 10 12.95 10 13.5C10 14.05 9.55 14.5 9 14.5ZM13 10.5H4C3.45 10.5 3 10.05 3 9.5C3 8.95 3.45 8.5 4 8.5H13C13.55 8.5 14 8.95 14 9.5C14 10.05 13.55 10.5 13 10.5Z" fill="white"/>
<path d="M23.707 21.524L18.429 12.95C18.084 12.364 17.44 12 16.75 12C16.06 12 15.416 12.364 15.081 12.934L9.815 21.49C9.609 21.796 9.5 22.161 9.5 22.545C9.5 23.623 10.38 24.5 11.462 24.5H22.038C23.12 24.5 24 23.623 24 22.545C24 22.161 23.891 21.796 23.707 21.524ZM16.75 22.5C16.198 22.5 15.75 22.052 15.75 21.5C15.75 20.948 16.198 20.5 16.75 20.5C17.302 20.5 17.75 20.948 17.75 21.5C17.75 22.052 17.302 22.5 16.75 22.5ZM17.75 19C17.75 19.552 17.303 20 16.75 20C16.197 20 15.75 19.552 15.75 19V17C15.75 16.448 16.197 16 16.75 16C17.303 16 17.75 16.448 17.75 17V19Z" fill="white"/>
</g>
<defs>
<clipPath id="clip0_529_584">
<rect width="24" height="24" fill="white" transform="translate(0 0.5)"/>
</clipPath>
</defs>
</svg>
