<svg width="25" height="25" viewBox="0 0 25 25" fill="none" xmlns="http://www.w3.org/2000/svg">
<g clip-path="url(#clip0_610_1349)">
<path d="M22.8152 8.04883H22.1578V15.2737C22.1578 16.3986 21.5029 17.4157 20.1898 17.4157H7.3252V17.7592C7.3252 18.7537 8.45638 19.7577 9.61801 19.7577H19.4536L23.2164 21.97L22.6707 19.7577H22.8152C23.976 19.7577 24.4998 18.7561 24.4998 17.7592V9.76389C24.4998 8.76936 23.976 8.04883 22.8152 8.04883Z" fill="#152C56"/>
<path d="M18.2695 3.0293H3.32757C2.01293 3.0293 0.5 4.19713 0.5 5.32282V14.3782C0.5 15.4149 1.78185 16.1636 3.0114 16.2791L2.21122 19.3166L7.33863 16.3002H18.2695C19.5841 16.3002 20.7973 15.5031 20.7973 14.3782V7.05194V5.32282C20.7973 4.19713 19.5834 3.0293 18.2695 3.0293ZM5.60711 10.6733C4.86158 10.6733 4.25734 10.0691 4.25734 9.3236C4.25734 8.57809 4.86158 7.97387 5.60711 7.97387C6.35187 7.97387 6.95688 8.57809 6.95688 9.3236C6.95688 10.0691 6.35187 10.6733 5.60711 10.6733ZM10.6487 10.6733C9.90311 10.6733 9.29888 10.0691 9.29888 9.3236C9.29888 8.57809 9.90311 7.97387 10.6487 7.97387C11.3942 7.97387 11.9984 8.57809 11.9984 9.3236C11.9984 10.0691 11.3942 10.6733 10.6487 10.6733ZM15.691 10.6733C14.9454 10.6733 14.3404 10.0691 14.3404 9.3236C14.3404 8.57809 14.9454 7.97387 15.691 7.97387C16.4349 7.97387 17.0407 8.57809 17.0407 9.3236C17.0407 10.0691 16.4349 10.6733 15.691 10.6733Z" fill="#152C56"/>
</g>
<defs>
<clipPath id="clip0_610_1349">
<rect width="24" height="24" fill="white" transform="translate(0.5 0.5)"/>
</clipPath>
</defs>
</svg>
