<svg width="24" height="25" viewBox="0 0 24 25" fill="none" xmlns="http://www.w3.org/2000/svg">
<path d="M17 5.5C17 4.90666 17.1759 4.32664 17.5056 3.83329C17.8352 3.33994 18.3038 2.95543 18.8519 2.72836C19.4001 2.5013 20.0033 2.44189 20.5853 2.55765C21.1672 2.6734 21.7018 2.95912 22.1213 3.37868C22.5409 3.79824 22.8266 4.33279 22.9424 4.91473C23.0581 5.49667 22.9987 6.09987 22.7716 6.64805C22.5446 7.19623 22.1601 7.66477 21.6667 7.99441C21.1734 8.32405 20.5933 8.5 20 8.5C19.2044 8.5 18.4413 8.18393 17.8787 7.62132C17.3161 7.05871 17 6.29565 17 5.5ZM2 6.5H14C14.2652 6.5 14.5196 6.39464 14.7071 6.20711C14.8946 6.01957 15 5.76522 15 5.5C15 5.23478 14.8946 4.98043 14.7071 4.79289C14.5196 4.60536 14.2652 4.5 14 4.5H2C1.73478 4.5 1.48043 4.60536 1.29289 4.79289C1.10536 4.98043 1 5.23478 1 5.5C1 5.76522 1.10536 6.01957 1.29289 6.20711C1.48043 6.39464 1.73478 6.5 2 6.5ZM8 9.5C7.38106 9.50174 6.7778 9.69488 6.27293 10.0529C5.76807 10.411 5.38631 10.9165 5.18 11.5H2C1.73478 11.5 1.48043 11.6054 1.29289 11.7929C1.10536 11.9804 1 12.2348 1 12.5C1 12.7652 1.10536 13.0196 1.29289 13.2071C1.48043 13.3946 1.73478 13.5 2 13.5H5.18C5.36345 14.0189 5.6861 14.4773 6.11264 14.8251C6.53918 15.1729 7.05317 15.3966 7.59836 15.4718C8.14355 15.5471 8.69893 15.4709 9.20371 15.2516C9.70849 15.0323 10.1432 14.6784 10.4603 14.2286C10.7775 13.7788 10.9647 13.2504 11.0017 12.7013C11.0386 12.1522 10.9238 11.6035 10.6697 11.1153C10.4157 10.6271 10.0323 10.2181 9.5614 9.93323C9.09052 9.64833 8.55035 9.49846 8 9.5ZM22 11.5H14C13.7348 11.5 13.4804 11.6054 13.2929 11.7929C13.1054 11.9804 13 12.2348 13 12.5C13 12.7652 13.1054 13.0196 13.2929 13.2071C13.4804 13.3946 13.7348 13.5 14 13.5H22C22.2652 13.5 22.5196 13.3946 22.7071 13.2071C22.8946 13.0196 23 12.7652 23 12.5C23 12.2348 22.8946 11.9804 22.7071 11.7929C22.5196 11.6054 22.2652 11.5 22 11.5ZM10 18.5H2C1.73478 18.5 1.48043 18.6054 1.29289 18.7929C1.10536 18.9804 1 19.2348 1 19.5C1 19.7652 1.10536 20.0196 1.29289 20.2071C1.48043 20.3946 1.73478 20.5 2 20.5H10C10.2652 20.5 10.5196 20.3946 10.7071 20.2071C10.8946 20.0196 11 19.7652 11 19.5C11 19.2348 10.8946 18.9804 10.7071 18.7929C10.5196 18.6054 10.2652 18.5 10 18.5ZM22 18.5H18.82C18.5841 17.8328 18.1199 17.2704 17.5095 16.9124C16.8991 16.5543 16.1818 16.4235 15.4843 16.5432C14.7868 16.6629 14.154 17.0253 13.6979 17.5663C13.2418 18.1074 12.9916 18.7923 12.9916 19.5C12.9916 20.2077 13.2418 20.8926 13.6979 21.4337C14.154 21.9747 14.7868 22.3371 15.4843 22.4568C16.1818 22.5765 16.8991 22.4457 17.5095 22.0876C18.1199 21.7296 18.5841 21.1672 18.82 20.5H22C22.2652 20.5 22.5196 20.3946 22.7071 20.2071C22.8946 20.0196 23 19.7652 23 19.5C23 19.2348 22.8946 18.9804 22.7071 18.7929C22.5196 18.6054 22.2652 18.5 22 18.5Z" fill="white"/>
</svg>
