<svg width="25" height="25" viewBox="0 0 25 25" fill="none" xmlns="http://www.w3.org/2000/svg">
<g clip-path="url(#clip0_324_3351)">
<path d="M19.1074 0H5.89258C2.6382 0 0 2.6382 0 5.89258V19.1074C0 22.3618 2.6382 25 5.89258 25H19.1074C22.3618 25 25 22.3618 25 19.1074V5.89258C25 2.6382 22.3618 0 19.1074 0Z" fill="#05C78B"/>
<path d="M20.002 10.5342L14.6041 5.73487C14.3903 5.54467 14.1261 5.42034 13.8433 5.37686C13.5605 5.33337 13.2711 5.37258 13.0101 5.48976C12.749 5.60695 12.5274 5.79711 12.372 6.03734C12.2165 6.27756 12.1338 6.55762 12.1339 6.84376V7.86915C10.9743 8.17501 9.87741 8.68206 8.89315 9.36719C7.67963 10.2146 6.67328 11.3253 5.9493 12.6162C5.04256 14.2212 4.5201 16.145 4.39461 18.3355C4.37838 18.6014 4.44923 18.8655 4.59645 19.0876C4.74367 19.3097 4.95924 19.4778 5.21053 19.5664C5.34552 19.6151 5.48793 19.64 5.63143 19.6401C5.82514 19.64 6.01607 19.594 6.18855 19.5058C6.36102 19.4176 6.51012 19.2898 6.62362 19.1328C7.56942 17.8403 8.93563 16.9356 10.6837 16.4395C11.1585 16.3061 11.6426 16.2081 12.1319 16.1465V16.9141C12.1321 17.2001 12.2149 17.48 12.3704 17.7201C12.5259 17.9602 12.7474 18.1503 13.0084 18.2674C13.2694 18.3846 13.5586 18.4238 13.8413 18.3804C14.1241 18.3371 14.3883 18.2129 14.6021 18.023L20.0001 13.2232C20.1899 13.0543 20.3418 12.8473 20.4458 12.6155C20.5498 12.3838 20.6036 12.1327 20.6036 11.8787C20.6036 11.6247 20.5498 11.3735 20.4458 11.1418C20.3418 10.9101 20.1899 10.703 20.0001 10.5342H20.002ZM14.1959 15.625V15.0474C14.196 14.7792 14.0916 14.5216 13.9049 14.3292C13.7182 14.1367 13.4639 14.0246 13.1959 14.0166C13.1412 14.0166 11.8409 13.9819 10.1978 14.4346C8.91854 14.7876 7.77205 15.3408 6.79598 16.0693C7.31698 13.9258 8.38924 12.2607 10.0001 11.1104C11.6109 9.95997 13.2091 9.74317 13.2779 9.73536C13.5311 9.70946 13.7656 9.59 13.9354 9.40035C14.1052 9.21069 14.1981 8.96451 14.1959 8.70997V8.13135L18.4107 11.8789L14.1959 15.625Z" fill="white"/>
</g>
<defs>
<clipPath id="clip0_324_3351">
<rect width="25" height="25" fill="white"/>
</clipPath>
</defs>
</svg>
