<svg width="18" height="19" viewBox="0 0 18 19" fill="none" xmlns="http://www.w3.org/2000/svg">
<g clip-path="url(#clip0_612_1971)">
<path d="M17.5753 7.11844L11.745 6.5777L9.42907 1.1999C9.26693 0.823341 8.73302 0.823341 8.57088 1.1999L6.25496 6.57774L0.424697 7.11844C0.016463 7.1563 -0.148525 7.66406 0.159478 7.93463L4.55843 11.7991L3.27108 17.5111C3.18094 17.911 3.61287 18.2248 3.96538 18.0155L8.99999 15.026L14.0346 18.0155C14.3871 18.2248 14.8191 17.911 14.7289 17.5111L13.4416 11.7991L17.8405 7.93463C18.1485 7.66406 17.9835 7.1563 17.5753 7.11844Z" fill="#FFDC64"/>
<path d="M9.42907 1.1999C9.26693 0.823341 8.73302 0.823341 8.57088 1.1999L6.25496 6.57774L0.424697 7.11844C0.016463 7.1563 -0.148525 7.66406 0.159478 7.93463L4.55843 11.7991L3.27108 17.5111C3.18094 17.911 3.61287 18.2248 3.96538 18.0155L5.08908 17.3483C5.24461 10.9463 8.21917 6.43799 10.5742 3.85897L9.42907 1.1999Z" fill="#FFC850"/>
</g>
<defs>
<clipPath id="clip0_612_1971">
<rect width="18" height="18" fill="white" transform="translate(0 0.5)"/>
</clipPath>
</defs>
</svg>
