<svg width="24" height="25" viewBox="0 0 24 25" fill="none" xmlns="http://www.w3.org/2000/svg">
<path d="M21.0982 3.40002C20.8191 3.11732 20.4867 2.89286 20.1202 2.73966C19.7537 2.58646 19.3604 2.50757 18.9632 2.50757C18.566 2.50757 18.1727 2.58646 17.8062 2.73966C17.4397 2.89286 17.1073 3.11732 16.8282 3.40002L14.9082 5.35002L19.1482 9.59002L21.0682 7.67002C21.3529 7.39295 21.5797 7.0621 21.7355 6.69667C21.8912 6.33125 21.9729 5.93852 21.9757 5.54129C21.9785 5.14405 21.9023 4.75022 21.7517 4.38264C21.6011 4.01506 21.3789 3.68106 21.0982 3.40002Z" fill="white"/>
<path d="M13.4891 6.77002L5.0991 15.16C5.02388 15.2373 4.95992 15.3249 4.9091 15.42L2.12909 21.03C2.04844 21.1815 2.00811 21.3511 2.01197 21.5226C2.01583 21.6941 2.06376 21.8618 2.15114 22.0094C2.23852 22.1571 2.36242 22.2797 2.51093 22.3657C2.65943 22.4516 2.82754 22.4979 2.99909 22.5C3.15146 22.5006 3.30196 22.4664 3.4391 22.4L9.0491 19.62C9.14425 19.5692 9.23177 19.5052 9.3091 19.43L17.6991 11.04L13.4891 6.77002Z" fill="white"/>
<path d="M21 22.5H12C11.7348 22.5 11.4804 22.3946 11.2929 22.2071C11.1054 22.0196 11 21.7652 11 21.5C11 21.2348 11.1054 20.9804 11.2929 20.7929C11.4804 20.6054 11.7348 20.5 12 20.5H21C21.2652 20.5 21.5196 20.6054 21.7071 20.7929C21.8946 20.9804 22 21.2348 22 21.5C22 21.7652 21.8946 22.0196 21.7071 22.2071C21.5196 22.3946 21.2652 22.5 21 22.5Z" fill="white"/>
</svg>
