<svg width="25" height="25" viewBox="0 0 25 25" fill="none" xmlns="http://www.w3.org/2000/svg">
<g clip-path="url(#clip0_672_545)">
<path d="M6 11.5C7.93 11.5 9.5 9.93 9.5 8C9.5 6.07 7.93 4.5 6 4.5C4.07 4.5 2.5 6.07 2.5 8C2.5 9.93 4.07 11.5 6 11.5ZM6 6.5C6.827 6.5 7.5 7.173 7.5 8C7.5 8.827 6.827 9.5 6 9.5C5.173 9.5 4.5 8.827 4.5 8C4.5 7.173 5.173 6.5 6 6.5ZM16 7.5C17.93 7.5 19.5 5.93 19.5 4C19.5 2.07 17.93 0.5 16 0.5C14.07 0.5 12.5 2.07 12.5 4C12.5 5.93 14.07 7.5 16 7.5ZM16 2.5C16.827 2.5 17.5 3.173 17.5 4C17.5 4.827 16.827 5.5 16 5.5C15.173 5.5 14.5 4.827 14.5 4C14.5 3.173 15.173 2.5 16 2.5ZM17.5 10.5C13.641 10.5 10.5 13.641 10.5 17.5C10.5 21.359 13.641 24.5 17.5 24.5C21.359 24.5 24.5 21.359 24.5 17.5C24.5 13.641 21.359 10.5 17.5 10.5ZM17.5 22.5C14.743 22.5 12.5 20.257 12.5 17.5C12.5 14.743 14.743 12.5 17.5 12.5C20.257 12.5 22.5 14.743 22.5 17.5C22.5 20.257 20.257 22.5 17.5 22.5ZM21.491 16.618L18.035 20.017C17.727 20.326 17.308 20.499 16.862 20.499C16.416 20.499 15.998 20.325 15.683 20.01L13.838 18.222L15.231 16.786L16.861 18.366L20.089 15.191L21.491 16.618ZM8.5 12.5C8.977 12.5 9.422 12.622 9.823 12.821C9.476 13.388 9.189 13.995 8.974 14.636C8.831 14.557 8.675 14.5 8.501 14.5H3.5C2.948 14.5 2.5 14.948 2.5 15.5V18.5H0.5V15.5C0.5 13.846 1.846 12.5 3.5 12.5H8.5ZM10.5 11.849V11.5C10.5 9.846 11.846 8.5 13.5 8.5H17.5C14.671 8.5 12.15 9.808 10.5 11.849Z" fill="white"/>
</g>
<defs>
<clipPath id="clip0_672_545">
<rect width="24" height="24" fill="white" transform="translate(0.5 0.5)"/>
</clipPath>
</defs>
</svg>
