<svg width="21" height="21" viewBox="0 0 21 21" fill="none" xmlns="http://www.w3.org/2000/svg">
<path d="M6.7723 12.2327H5.3998C4.6573 12.2327 4.0498 12.8402 4.0498 13.5827V19.2527C4.0498 20.0027 4.6573 20.6027 5.3998 20.6027H6.7723V12.2327Z" fill="black"/>
<path d="M16.875 14.6925L15.63 19.1775C15.3975 20.0175 14.64 20.6025 13.7625 20.6025H7.89746V12.2325L10.3725 8.72995C10.635 8.36245 11.0625 8.13745 11.52 8.13745C12.315 8.13745 12.9225 8.78995 12.9225 9.53995C12.9225 9.66745 12.9075 9.79495 12.87 9.92245L12.2175 12.2325H15.0075C16.29 12.2325 17.22 13.455 16.875 14.6925Z" fill="black"/>
<path d="M3.06153 3.5993L3.62478 4.74005C3.67803 4.8473 3.78003 4.9223 3.89928 4.93955L5.15854 5.12255C5.45704 5.16605 5.57628 5.5328 5.36028 5.74355L4.44903 6.63155C4.36353 6.71555 4.32378 6.83555 4.34403 6.95405L4.55929 8.20805C4.61029 8.5058 4.29828 8.7323 4.03053 8.59205L2.90403 8.0003C2.79828 7.9448 2.67153 7.9448 2.56503 8.0003L1.43853 8.59205C1.17153 8.7323 0.858785 8.5058 0.909785 8.20805L1.12503 6.95405C1.14528 6.83555 1.10628 6.71555 1.02003 6.63155L0.110285 5.74355C-0.105715 5.5328 0.0135345 5.16605 0.312035 5.12255L1.57128 4.93955C1.68978 4.9223 1.79253 4.8473 1.84578 4.74005L2.40903 3.5993C2.54253 3.32855 2.92803 3.32855 3.06153 3.5993Z" fill="black"/>
<path d="M10.8262 0.599303L11.3894 1.74005C11.4427 1.8473 11.5447 1.9223 11.6639 1.93955L12.9232 2.12255C13.2217 2.16605 13.3409 2.5328 13.1249 2.74355L12.2137 3.63155C12.1282 3.71555 12.0884 3.83555 12.1087 3.95405L12.3239 5.20805C12.3749 5.5058 12.0629 5.7323 11.7952 5.59205L10.6687 5.0003C10.5629 4.9448 10.4362 4.9448 10.3297 5.0003L9.20318 5.59205C8.93618 5.7323 8.62343 5.5058 8.67443 5.20805L8.88968 3.95405C8.90993 3.83555 8.87093 3.71555 8.78468 3.63155L7.87493 2.74355C7.65893 2.5328 7.77818 2.16605 8.07668 2.12255L9.33593 1.93955C9.45443 1.9223 9.55718 1.84805 9.61043 1.74005L10.1737 0.599303C10.3072 0.328553 10.6927 0.328553 10.8262 0.599303Z" fill="black"/>
<path d="M18.5914 3.5993L19.1546 4.74005C19.2079 4.8473 19.3099 4.9223 19.4291 4.93955L20.6884 5.12255C20.9869 5.16605 21.1061 5.5328 20.8901 5.74355L19.9789 6.63155C19.8934 6.71555 19.8536 6.83555 19.8739 6.95405L20.0891 8.20805C20.1401 8.5058 19.8281 8.7323 19.5604 8.59205L18.4339 8.0003C18.3281 7.9448 18.2014 7.9448 18.0949 8.0003L16.9684 8.59205C16.7014 8.7323 16.3886 8.5058 16.4396 8.20805L16.6549 6.95405C16.6751 6.83555 16.6361 6.71555 16.5499 6.63155L15.6386 5.74355C15.4226 5.5328 15.5419 5.16605 15.8404 5.12255L17.0996 4.93955C17.2181 4.9223 17.3209 4.84805 17.3741 4.74005L17.9374 3.5993C18.0724 3.32855 18.4579 3.32855 18.5914 3.5993Z" fill="black"/>
</svg>
