<svg width="25" height="25" viewBox="0 0 25 25" fill="none" xmlns="http://www.w3.org/2000/svg">
<g clip-path="url(#clip0_1149_1694)">
<path d="M21.7004 4.5H12.2004C12.1467 4.5 12.0934 4.50844 12.0424 4.52498L11.9224 4.56497C11.6603 4.65216 11.5186 4.93523 11.6058 5.19722C11.6063 5.19881 11.6069 5.20036 11.6074 5.20195L16.6334 19.889L13.3234 23.671C13.1417 23.8789 13.1629 24.1948 13.3709 24.3765C13.4621 24.4562 13.5792 24.5001 13.7003 24.5H21.7004C23.0811 24.5 24.2004 23.3807 24.2004 22V7.00003C24.2004 5.61928 23.0811 4.5 21.7004 4.5Z" fill="#ECEFF1"/>
<path d="M17.6552 19.793C17.5741 19.6146 17.3962 19.5 17.2002 19.5H12.2002C11.9241 19.5 11.7002 19.7239 11.7002 20C11.7002 20.0601 11.711 20.1197 11.7322 20.176L13.2322 24.176C13.2941 24.3407 13.4381 24.4607 13.6112 24.492C13.6406 24.4971 13.6704 24.4997 13.7002 24.5C13.8444 24.4999 13.9814 24.4375 14.0762 24.329L17.5762 20.329C17.7054 20.1813 17.7363 19.9717 17.6552 19.793Z" fill="#1976D2"/>
<path d="M21.7002 11.5H14.7002C14.4241 11.5 14.2002 11.2762 14.2002 11C14.2002 10.7239 14.4241 10.5 14.7002 10.5H21.7002C21.9763 10.5 22.2002 10.7239 22.2002 11C22.2002 11.2762 21.9764 11.5 21.7002 11.5Z" fill="#455A64"/>
<path d="M17.7002 11.5C17.4241 11.5 17.2002 11.2761 17.2002 11V10C17.2002 9.72388 17.4241 9.5 17.7002 9.5C17.9764 9.5 18.2002 9.72388 18.2002 10V11C18.2002 11.2761 17.9764 11.5 17.7002 11.5Z" fill="#455A64"/>
<path d="M16.2002 17.5C15.9241 17.4998 15.7004 17.2757 15.7007 16.9996C15.7008 16.8382 15.7789 16.6868 15.9103 16.593C18.1003 15.037 19.7002 11.865 19.7002 11C19.7002 10.7239 19.9241 10.5 20.2003 10.5C20.4764 10.5 20.7003 10.7239 20.7003 11C20.7003 12.318 18.7733 15.786 16.4903 17.407C16.4056 17.4674 16.3042 17.4999 16.2002 17.5Z" fill="#455A64"/>
<path d="M20.2002 18.5C20.0751 18.5001 19.9545 18.4534 19.8622 18.369C19.5002 18.037 16.3042 15.085 15.7372 13.688C15.6331 13.432 15.7562 13.1401 16.0122 13.036C16.2682 12.9319 16.5601 13.0551 16.6642 13.311C17.0732 14.319 19.6002 16.771 20.5392 17.6301C20.7435 17.8158 20.7586 18.132 20.5729 18.3364C20.4775 18.4413 20.342 18.5008 20.2002 18.5Z" fill="#455A64"/>
<path d="M17.6732 19.838L11.1732 0.838016C11.104 0.635844 10.9139 0.5 10.7002 0.5H2.70018C1.31948 0.5 0.200195 1.61928 0.200195 2.99998V18C0.200195 19.3807 1.31948 20.5 2.70018 20.5H17.2002C17.4763 20.5 17.7001 20.2761 17.7001 20C17.7002 19.9449 17.691 19.8901 17.6732 19.838Z" fill="#2196F3"/>
<path d="M9.70034 14.5C9.48893 14.5001 9.30035 14.3671 9.22934 14.168L7.20035 8.486L5.17137 14.168C5.0681 14.4241 4.77677 14.548 4.52065 14.4448C4.27901 14.3473 4.15268 14.0807 4.23035 13.832L6.73034 6.83202C6.85263 6.57219 7.16243 6.46067 7.42226 6.58292C7.53171 6.63444 7.61979 6.72252 7.67135 6.83202L10.1713 13.832C10.2644 14.0913 10.1303 14.377 9.87134 14.471C9.8164 14.4905 9.75856 14.5002 9.70034 14.5Z" fill="#FAFAFA"/>
<path d="M8.20023 11.5H6.20021C5.92407 11.5 5.7002 11.2762 5.7002 11C5.7002 10.7239 5.92407 10.5 6.20021 10.5H8.20023C8.47637 10.5 8.70024 10.7239 8.70024 11C8.7002 11.2762 8.47637 11.5 8.20023 11.5Z" fill="#FAFAFA"/>
</g>
<defs>
<clipPath id="clip0_1149_1694">
<rect width="24" height="24" fill="white" transform="translate(0.200195 0.5)"/>
</clipPath>
</defs>
</svg>
